<?xml version="1.0" encoding="us-ascii" standalone="no"?><svg xmlns="http://www.w3.org/2000/svg" xmlns:xlink="http://www.w3.org/1999/xlink" contentStyleType="text/css" height="1120px" preserveAspectRatio="none" style="width:1877px;height:1120px;background:#FFFFFF;" version="1.1" viewBox="0 0 1877 1120" width="1877px" zoomAndPan="magnify"><defs/><g><!--cluster controllers--><g id="cluster_controllers"><path d="M876.5,354.26 L963.5,354.26 A3.75,3.75 0 0 1 966,356.76 L973,376.5569 L1558.5,376.5569 A2.5,2.5 0 0 1 1561,379.0569 L1561,1014.78 A2.5,2.5 0 0 1 1558.5,1017.28 L876.5,1017.28 A2.5,2.5 0 0 1 874,1014.78 L874,356.76 A2.5,2.5 0 0 1 876.5,354.26 " fill="none" style="stroke:#000000;stroke-width:1.5;"/><line style="stroke:#000000;stroke-width:1.5;" x1="874" x2="973" y1="376.5569" y2="376.5569"/><text fill="#000000" font-family="sans-serif" font-size="14" font-weight="bold" lengthAdjust="spacing" textLength="86" x="878" y="369.2551">controllers</text></g><!--cluster migrations--><g id="cluster_migrations"><path d="M8.5,739.31 L92.5,739.31 A3.75,3.75 0 0 1 95,741.81 L102,761.6069 L831.5,761.6069 A2.5,2.5 0 0 1 834,764.1069 L834,884.41 A2.5,2.5 0 0 1 831.5,886.91 L8.5,886.91 A2.5,2.5 0 0 1 6,884.41 L6,741.81 A2.5,2.5 0 0 1 8.5,739.31 " fill="none" style="stroke:#000000;stroke-width:1.5;"/><line style="stroke:#000000;stroke-width:1.5;" x1="6" x2="102" y1="761.6069" y2="761.6069"/><text fill="#000000" font-family="sans-serif" font-size="14" font-weight="bold" lengthAdjust="spacing" textLength="83" x="10" y="754.3051">migrations</text></g><!--cluster models--><g id="cluster_models"><path d="M669.5,117.04 L727.5,117.04 A3.75,3.75 0 0 1 730,119.54 L737,139.3369 L887.5,139.3369 A2.5,2.5 0 0 1 890,141.8369 L890,294.73 A2.5,2.5 0 0 1 887.5,297.23 L669.5,297.23 A2.5,2.5 0 0 1 667,294.73 L667,119.54 A2.5,2.5 0 0 1 669.5,117.04 " fill="none" style="stroke:#000000;stroke-width:1.5;"/><line style="stroke:#000000;stroke-width:1.5;" x1="667" x2="737" y1="139.3369" y2="139.3369"/><text fill="#000000" font-family="sans-serif" font-size="14" font-weight="bold" lengthAdjust="spacing" textLength="57" x="671" y="132.0351">models</text></g><!--cluster templates--><g id="cluster_templates"><path d="M1603.5,390.45 L1682.5,390.45 A3.75,3.75 0 0 1 1685,392.95 L1692,412.7469 L1861.5,412.7469 A2.5,2.5 0 0 1 1864,415.2469 L1864,558.25 A2.5,2.5 0 0 1 1861.5,560.75 L1603.5,560.75 A2.5,2.5 0 0 1 1601,558.25 L1601,392.95 A2.5,2.5 0 0 1 1603.5,390.45 " fill="none" style="stroke:#000000;stroke-width:1.5;"/><line style="stroke:#000000;stroke-width:1.5;" x1="1601" x2="1692" y1="412.7469" y2="412.7469"/><text fill="#000000" font-family="sans-serif" font-size="14" font-weight="bold" lengthAdjust="spacing" textLength="78" x="1605" y="405.4451">templates</text></g><!--cluster _settings--><g id="cluster__settings"><path d="M1635.5,441.45 L1707.5,441.45 A3.75,3.75 0 0 1 1710,443.95 L1717,463.7469 L1717.5,463.7469 A2.5,2.5 0 0 1 1720,466.2469 L1720,526.25 A2.5,2.5 0 0 1 1717.5,528.75 L1635.5,528.75 A2.5,2.5 0 0 1 1633,526.25 L1633,443.95 A2.5,2.5 0 0 1 1635.5,441.45 " fill="none" style="stroke:#000000;stroke-width:1.5;"/><line style="stroke:#000000;stroke-width:1.5;" x1="1633" x2="1717" y1="463.7469" y2="463.7469"/><text fill="#000000" font-family="sans-serif" font-size="14" font-weight="bold" lengthAdjust="spacing" textLength="71" x="1637" y="456.4451">_settings</text></g><!--cluster index--><g id="cluster_index"><path d="M1746.5,441.45 L1790.5,441.45 A3.75,3.75 0 0 1 1793,443.95 L1800,463.7469 L1821.5,463.7469 A2.5,2.5 0 0 1 1824,466.2469 L1824,526.25 A2.5,2.5 0 0 1 1821.5,528.75 L1746.5,528.75 A2.5,2.5 0 0 1 1744,526.25 L1744,443.95 A2.5,2.5 0 0 1 1746.5,441.45 " fill="none" style="stroke:#000000;stroke-width:1.5;"/><line style="stroke:#000000;stroke-width:1.5;" x1="1744" x2="1800" y1="463.7469" y2="463.7469"/><text fill="#000000" font-family="sans-serif" font-size="14" font-weight="bold" lengthAdjust="spacing" textLength="43" x="1748" y="456.4451">index</text></g><!--class EllinikaController--><g id="elem_EllinikaController"><rect codeLine="20" fill="#F1F1F1" height="341.3438" id="EllinikaController" rx="2.5" ry="2.5" style="stroke:#181818;stroke-width:0.5;" width="309" x="906.5" y="651.94"/><ellipse cx="1000.25" cy="667.94" fill="#ADD1B2" rx="11" ry="11" style="stroke:#181818;stroke-width:1.0;"/><path d="M1003.2188,673.5806 Q1002.6406,673.8775 1002,674.0181 Q1001.3594,674.1744 1000.6563,674.1744 Q998.1563,674.1744 996.8281,672.5338 Q995.5156,670.8775 995.5156,667.7525 Q995.5156,664.6275 996.8281,662.9713 Q998.1563,661.315 1000.6563,661.315 Q1001.3594,661.315 1002,661.4713 Q1002.6563,661.6275 1003.2188,661.9244 L1003.2188,664.6431 Q1002.5938,664.065 1002,663.7994 Q1001.4063,663.5181 1000.7813,663.5181 Q999.4375,663.5181 998.75,664.5963 Q998.0625,665.6588 998.0625,667.7525 Q998.0625,669.8463 998.75,670.9244 Q999.4375,671.9869 1000.7813,671.9869 Q1001.4063,671.9869 1002,671.7213 Q1002.5938,671.44 1003.2188,670.8619 L1003.2188,673.5806 Z " fill="#000000"/><text fill="#000000" font-family="sans-serif" font-size="14" lengthAdjust="spacing" textLength="113" x="1020.75" y="672.7867">EllinikaController</text><line style="stroke:#181818;stroke-width:0.5;" x1="907.5" x2="1214.5" y1="683.94" y2="683.94"/><line style="stroke:#181818;stroke-width:0.5;" x1="907.5" x2="1214.5" y1="691.94" y2="691.94"/><ellipse cx="917.5" cy="705.5884" fill="#84BE84" rx="3" ry="3" style="stroke:#038048;stroke-width:1.0;"/><text fill="#000000" font-family="sans-serif" font-size="14" lengthAdjust="spacing" textLength="283" x="926.5" y="708.9351">insertEntryData(Entry, bool, string, string)</text><ellipse cx="917.5" cy="721.8853" fill="#84BE84" rx="3" ry="3" style="stroke:#038048;stroke-width:1.0;"/><text fill="#000000" font-family="sans-serif" font-size="14" lengthAdjust="spacing" textLength="226" x="926.5" y="725.232">checkAllChangedTrue(int, string)</text><ellipse cx="917.5" cy="738.1822" fill="#84BE84" rx="3" ry="3" style="stroke:#038048;stroke-width:1.0;"/><text fill="#000000" font-family="sans-serif" font-size="14" lengthAdjust="spacing" textLength="252" x="926.5" y="741.5289">insertFreshEntry(Entry, string, string)</text><ellipse cx="917.5" cy="754.4791" fill="#84BE84" rx="3" ry="3" style="stroke:#038048;stroke-width:1.0;"/><text fill="#000000" font-family="sans-serif" font-size="14" lengthAdjust="spacing" textLength="150" x="926.5" y="757.8257">deleteField(int, string)</text><ellipse cx="917.5" cy="770.7759" fill="#84BE84" rx="3" ry="3" style="stroke:#038048;stroke-width:1.0;"/><text fill="#000000" font-family="sans-serif" font-size="14" lengthAdjust="spacing" textLength="130" x="926.5" y="774.1226">actionDeleteField()</text><ellipse cx="917.5" cy="787.0728" fill="#84BE84" rx="3" ry="3" style="stroke:#038048;stroke-width:1.0;"/><text fill="#000000" font-family="sans-serif" font-size="14" lengthAdjust="spacing" textLength="87" x="926.5" y="790.4195">deleteInDB()</text><ellipse cx="917.5" cy="803.3697" fill="#84BE84" rx="3" ry="3" style="stroke:#038048;stroke-width:1.0;"/><text fill="#000000" font-family="sans-serif" font-size="14" lengthAdjust="spacing" textLength="153" x="926.5" y="806.7164">deleteEntryById(Entry)</text><ellipse cx="917.5" cy="819.6666" fill="#84BE84" rx="3" ry="3" style="stroke:#038048;stroke-width:1.0;"/><text fill="#000000" font-family="sans-serif" font-size="14" lengthAdjust="spacing" textLength="160" x="926.5" y="823.0132">isInTable(int, int, string)</text><ellipse cx="917.5" cy="835.9634" fill="#84BE84" rx="3" ry="3" style="stroke:#038048;stroke-width:1.0;"/><text fill="#000000" font-family="sans-serif" font-size="14" lengthAdjust="spacing" textLength="161" x="926.5" y="839.3101">entryIdExists(int, string)</text><ellipse cx="917.5" cy="852.2603" fill="#84BE84" rx="3" ry="3" style="stroke:#038048;stroke-width:1.0;"/><text fill="#000000" font-family="sans-serif" font-size="14" lengthAdjust="spacing" textLength="239" x="926.5" y="855.607">checkEntryChanged(int, int, string)</text><ellipse cx="917.5" cy="868.5572" fill="#84BE84" rx="3" ry="3" style="stroke:#038048;stroke-width:1.0;"/><text fill="#000000" font-family="sans-serif" font-size="14" lengthAdjust="spacing" textLength="283" x="926.5" y="871.9039">deleteEntriesIfAllChangedTrue(int, string)</text><ellipse cx="917.5" cy="884.8541" fill="#84BE84" rx="3" ry="3" style="stroke:#038048;stroke-width:1.0;"/><text fill="#000000" font-family="sans-serif" font-size="14" lengthAdjust="spacing" textLength="89" x="926.5" y="888.2007">actionIndex()</text><ellipse cx="917.5" cy="901.1509" fill="#84BE84" rx="3" ry="3" style="stroke:#038048;stroke-width:1.0;"/><text fill="#000000" font-family="sans-serif" font-size="14" lengthAdjust="spacing" textLength="133" x="926.5" y="904.4976">actionDeleteEntry()</text><ellipse cx="917.5" cy="917.4478" fill="#84BE84" rx="3" ry="3" style="stroke:#038048;stroke-width:1.0;"/><text fill="#000000" font-family="sans-serif" font-size="14" lengthAdjust="spacing" textLength="173" x="926.5" y="920.7945">getLanguageBySiteId(int)</text><ellipse cx="917.5" cy="933.7447" fill="#84BE84" rx="3" ry="3" style="stroke:#038048;stroke-width:1.0;"/><text fill="#000000" font-family="sans-serif" font-size="14" lengthAdjust="spacing" textLength="96" x="926.5" y="937.0914">getAllEntries()</text><ellipse cx="917.5" cy="950.0416" fill="#84BE84" rx="3" ry="3" style="stroke:#038048;stroke-width:1.0;"/><text fill="#000000" font-family="sans-serif" font-size="14" lengthAdjust="spacing" textLength="258" x="926.5" y="953.3882">updateFieldContent(int, string, string)</text><ellipse cx="917.5" cy="966.3384" fill="#84BE84" rx="3" ry="3" style="stroke:#038048;stroke-width:1.0;"/><text fill="#000000" font-family="sans-serif" font-size="14" lengthAdjust="spacing" textLength="190" x="926.5" y="969.6851">actionUpdateFieldContent()</text><ellipse cx="917.5" cy="982.6353" fill="#84BE84" rx="3" ry="3" style="stroke:#038048;stroke-width:1.0;"/><text fill="#000000" font-family="sans-serif" font-size="14" lengthAdjust="spacing" textLength="142" x="926.5" y="985.982">actionSaveSettings()</text></g><!--class EntryHandler--><g id="elem_EntryHandler"><rect codeLine="41" fill="#F1F1F1" height="194.6719" id="EntryHandler" rx="2.5" ry="2.5" style="stroke:#181818;stroke-width:0.5;" width="225" x="1281.5" y="397.26"/><ellipse cx="1345.75" cy="413.26" fill="#ADD1B2" rx="11" ry="11" style="stroke:#181818;stroke-width:1.0;"/><path d="M1348.7188,418.9006 Q1348.1406,419.1975 1347.5,419.3381 Q1346.8594,419.4944 1346.1563,419.4944 Q1343.6563,419.4944 1342.3281,417.8538 Q1341.0156,416.1975 1341.0156,413.0725 Q1341.0156,409.9475 1342.3281,408.2913 Q1343.6563,406.635 1346.1563,406.635 Q1346.8594,406.635 1347.5,406.7913 Q1348.1563,406.9475 1348.7188,407.2444 L1348.7188,409.9631 Q1348.0938,409.385 1347.5,409.1194 Q1346.9063,408.8381 1346.2813,408.8381 Q1344.9375,408.8381 1344.25,409.9163 Q1343.5625,410.9788 1343.5625,413.0725 Q1343.5625,415.1663 1344.25,416.2444 Q1344.9375,417.3069 1346.2813,417.3069 Q1346.9063,417.3069 1347.5,417.0413 Q1348.0938,416.76 1348.7188,416.1819 L1348.7188,418.9006 Z " fill="#000000"/><text fill="#000000" font-family="sans-serif" font-size="14" lengthAdjust="spacing" textLength="88" x="1366.25" y="418.1067">EntryHandler</text><line style="stroke:#181818;stroke-width:0.5;" x1="1282.5" x2="1505.5" y1="429.26" y2="429.26"/><rect fill="none" height="6" style="stroke:#C82930;stroke-width:1.0;" width="6" x="1289.5" y="439.9084"/><text fill="#000000" font-family="sans-serif" font-size="14" lengthAdjust="spacing" textLength="35" x="1301.5" y="446.2551">entry</text><rect fill="none" height="6" style="stroke:#C82930;stroke-width:1.0;" width="6" x="1289.5" y="456.2053"/><text fill="#000000" font-family="sans-serif" font-size="14" lengthAdjust="spacing" textLength="140" x="1301.5" y="462.552">changeFieldHandles</text><rect fill="none" height="6" style="stroke:#C82930;stroke-width:1.0;" width="6" x="1289.5" y="472.5022"/><text fill="#000000" font-family="sans-serif" font-size="14" lengthAdjust="spacing" textLength="74" x="1301.5" y="478.8489">lastUpdate</text><line style="stroke:#181818;stroke-width:0.5;" x1="1282.5" x2="1505.5" y1="486.1506" y2="486.1506"/><ellipse cx="1292.5" cy="499.7991" fill="#84BE84" rx="3" ry="3" style="stroke:#038048;stroke-width:1.0;"/><text fill="#000000" font-family="sans-serif" font-size="14" lengthAdjust="spacing" textLength="125" x="1301.5" y="503.1457">__construct(Entry)</text><ellipse cx="1292.5" cy="516.0959" fill="#84BE84" rx="3" ry="3" style="stroke:#038048;stroke-width:1.0;"/><text fill="#000000" font-family="sans-serif" font-size="14" lengthAdjust="spacing" textLength="131" x="1301.5" y="519.4426">processEntry(bool)</text><ellipse cx="1292.5" cy="532.3928" fill="#84BE84" rx="3" ry="3" style="stroke:#038048;stroke-width:1.0;"/><text fill="#000000" font-family="sans-serif" font-size="14" lengthAdjust="spacing" textLength="140" x="1301.5" y="535.7395">processFreshEntry()</text><rect fill="#F24D5C" height="6" style="stroke:#C82930;stroke-width:1.0;" width="6" x="1289.5" y="545.6897"/><text fill="#000000" font-family="sans-serif" font-size="14" lengthAdjust="spacing" textLength="142" x="1301.5" y="552.0364">getFields(EntryType)</text><rect fill="#F24D5C" height="6" style="stroke:#C82930;stroke-width:1.0;" width="6" x="1289.5" y="561.9866"/><text fill="#000000" font-family="sans-serif" font-size="14" lengthAdjust="spacing" textLength="199" x="1301.5" y="568.3332">isWithinTimeThreshold(Field)</text><ellipse cx="1292.5" cy="581.2834" fill="#84BE84" rx="3" ry="3" style="stroke:#038048;stroke-width:1.0;"/><text fill="#000000" font-family="sans-serif" font-size="14" lengthAdjust="spacing" textLength="175" x="1301.5" y="584.6301">getTimeDiff(string, string)</text></g><!--class UpdateController--><g id="elem_UpdateController"><rect codeLine="53" fill="#F1F1F1" height="145.7813" id="UpdateController" rx="2.5" ry="2.5" style="stroke:#181818;stroke-width:0.5;" width="286" x="1251" y="749.72"/><ellipse cx="1331.25" cy="765.72" fill="#ADD1B2" rx="11" ry="11" style="stroke:#181818;stroke-width:1.0;"/><path d="M1334.2188,771.3606 Q1333.6406,771.6575 1333,771.7981 Q1332.3594,771.9544 1331.6563,771.9544 Q1329.1563,771.9544 1327.8281,770.3138 Q1326.5156,768.6575 1326.5156,765.5325 Q1326.5156,762.4075 1327.8281,760.7513 Q1329.1563,759.095 1331.6563,759.095 Q1332.3594,759.095 1333,759.2513 Q1333.6563,759.4075 1334.2188,759.7044 L1334.2188,762.4231 Q1333.5938,761.845 1333,761.5794 Q1332.4063,761.2981 1331.7813,761.2981 Q1330.4375,761.2981 1329.75,762.3763 Q1329.0625,763.4388 1329.0625,765.5325 Q1329.0625,767.6263 1329.75,768.7044 Q1330.4375,769.7669 1331.7813,769.7669 Q1332.4063,769.7669 1333,769.5013 Q1333.5938,769.22 1334.2188,768.6419 L1334.2188,771.3606 Z " fill="#000000"/><text fill="#000000" font-family="sans-serif" font-size="14" lengthAdjust="spacing" textLength="117" x="1351.75" y="770.5667">UpdateController</text><line style="stroke:#181818;stroke-width:0.5;" x1="1252" x2="1536" y1="781.72" y2="781.72"/><line style="stroke:#181818;stroke-width:0.5;" x1="1252" x2="1536" y1="789.72" y2="789.72"/><ellipse cx="1262" cy="803.3684" fill="#84BE84" rx="3" ry="3" style="stroke:#038048;stroke-width:1.0;"/><text fill="#000000" font-family="sans-serif" font-size="14" lengthAdjust="spacing" textLength="260" x="1271" y="806.7151">insertUpdateData(Entry, string, string)</text><ellipse cx="1262" cy="819.6653" fill="#84BE84" rx="3" ry="3" style="stroke:#038048;stroke-width:1.0;"/><text fill="#000000" font-family="sans-serif" font-size="14" lengthAdjust="spacing" textLength="252" x="1271" y="823.012">insertFreshEntry(Entry, string, string)</text><ellipse cx="1262" cy="835.9622" fill="#84BE84" rx="3" ry="3" style="stroke:#038048;stroke-width:1.0;"/><text fill="#000000" font-family="sans-serif" font-size="14" lengthAdjust="spacing" textLength="171" x="1271" y="839.3089">deleteEntry(Entry, string)</text><ellipse cx="1262" cy="852.2591" fill="#84BE84" rx="3" ry="3" style="stroke:#038048;stroke-width:1.0;"/><text fill="#000000" font-family="sans-serif" font-size="14" lengthAdjust="spacing" textLength="153" x="1271" y="855.6057">deleteEntryById(Entry)</text><ellipse cx="1262" cy="868.5559" fill="#84BE84" rx="3" ry="3" style="stroke:#038048;stroke-width:1.0;"/><text fill="#000000" font-family="sans-serif" font-size="14" lengthAdjust="spacing" textLength="210" x="1271" y="871.9026">isInUpdateTable(int, int, string)</text><ellipse cx="1262" cy="884.8528" fill="#84BE84" rx="3" ry="3" style="stroke:#038048;stroke-width:1.0;"/><text fill="#000000" font-family="sans-serif" font-size="14" lengthAdjust="spacing" textLength="200" x="1271" y="888.1995">getLastUpdate(int, int, string)</text></g><!--class myymmdd_hhmmss_event_table--><g id="elem_myymmdd_hhmmss_event_table"><rect codeLine="64" fill="#F1F1F1" height="80.5938" id="myymmdd_hhmmss_event_table" rx="2.5" ry="2.5" style="stroke:#181818;stroke-width:0.5;" width="358" x="30" y="782.31"/><ellipse cx="45" cy="798.31" fill="#ADD1B2" rx="11" ry="11" style="stroke:#181818;stroke-width:1.0;"/><path d="M47.9688,803.9506 Q47.3906,804.2475 46.75,804.3881 Q46.1094,804.5444 45.4063,804.5444 Q42.9063,804.5444 41.5781,802.9038 Q40.2656,801.2475 40.2656,798.1225 Q40.2656,794.9975 41.5781,793.3413 Q42.9063,791.685 45.4063,791.685 Q46.1094,791.685 46.75,791.8413 Q47.4063,791.9975 47.9688,792.2944 L47.9688,795.0131 Q47.3438,794.435 46.75,794.1694 Q46.1563,793.8881 45.5313,793.8881 Q44.1875,793.8881 43.5,794.9663 Q42.8125,796.0288 42.8125,798.1225 Q42.8125,800.2163 43.5,801.2944 Q44.1875,802.3569 45.5313,802.3569 Q46.1563,802.3569 46.75,802.0913 Q47.3438,801.81 47.9688,801.2319 L47.9688,803.9506 Z " fill="#000000"/><text fill="#000000" font-family="sans-serif" font-size="14" lengthAdjust="spacing" textLength="225" x="59" y="803.1567">myymmdd_hhmmss_event_table</text><rect fill="#FFFFFF" height="15.9688" style="stroke:#181818;stroke-width:1.0;stroke-dasharray:2.0,2.0;" width="99" x="292" y="779.31"/><text fill="#000000" font-family="sans-serif" font-size="12" font-style="italic" lengthAdjust="spacing" textLength="97" x="293" y="791.4487">changing name</text><line style="stroke:#181818;stroke-width:0.5;" x1="31" x2="387" y1="814.31" y2="814.31"/><line style="stroke:#181818;stroke-width:0.5;" x1="31" x2="387" y1="822.31" y2="822.31"/><ellipse cx="41" cy="835.9584" fill="#84BE84" rx="3" ry="3" style="stroke:#038048;stroke-width:1.0;"/><text fill="#000000" font-family="sans-serif" font-size="14" lengthAdjust="spacing" textLength="58" x="50" y="839.3051">safeUp()</text><ellipse cx="41" cy="852.2553" fill="#84BE84" rx="3" ry="3" style="stroke:#038048;stroke-width:1.0;"/><text fill="#000000" font-family="sans-serif" font-size="14" lengthAdjust="spacing" textLength="79" x="50" y="855.602">safeDown()</text></g><!--class myymmdd_hhmmss_update_table--><g id="elem_myymmdd_hhmmss_update_table"><rect codeLine="69" fill="#F1F1F1" height="80.5938" id="myymmdd_hhmmss_update_table" rx="2.5" ry="2.5" style="stroke:#181818;stroke-width:0.5;" width="368" x="423" y="782.31"/><ellipse cx="438" cy="798.31" fill="#ADD1B2" rx="11" ry="11" style="stroke:#181818;stroke-width:1.0;"/><path d="M440.9688,803.9506 Q440.3906,804.2475 439.75,804.3881 Q439.1094,804.5444 438.4063,804.5444 Q435.9063,804.5444 434.5781,802.9038 Q433.2656,801.2475 433.2656,798.1225 Q433.2656,794.9975 434.5781,793.3413 Q435.9063,791.685 438.4063,791.685 Q439.1094,791.685 439.75,791.8413 Q440.4063,791.9975 440.9688,792.2944 L440.9688,795.0131 Q440.3438,794.435 439.75,794.1694 Q439.1563,793.8881 438.5313,793.8881 Q437.1875,793.8881 436.5,794.9663 Q435.8125,796.0288 435.8125,798.1225 Q435.8125,800.2163 436.5,801.2944 Q437.1875,802.3569 438.5313,802.3569 Q439.1563,802.3569 439.75,802.0913 Q440.3438,801.81 440.9688,801.2319 L440.9688,803.9506 Z " fill="#000000"/><text fill="#000000" font-family="sans-serif" font-size="14" lengthAdjust="spacing" textLength="235" x="452" y="803.1567">myymmdd_hhmmss_update_table</text><rect fill="#FFFFFF" height="15.9688" style="stroke:#181818;stroke-width:1.0;stroke-dasharray:2.0,2.0;" width="99" x="695" y="779.31"/><text fill="#000000" font-family="sans-serif" font-size="12" font-style="italic" lengthAdjust="spacing" textLength="97" x="696" y="791.4487">changing name</text><line style="stroke:#181818;stroke-width:0.5;" x1="424" x2="790" y1="814.31" y2="814.31"/><line style="stroke:#181818;stroke-width:0.5;" x1="424" x2="790" y1="822.31" y2="822.31"/><ellipse cx="434" cy="835.9584" fill="#84BE84" rx="3" ry="3" style="stroke:#038048;stroke-width:1.0;"/><text fill="#000000" font-family="sans-serif" font-size="14" lengthAdjust="spacing" textLength="58" x="443" y="839.3051">safeUp()</text><ellipse cx="434" cy="852.2553" fill="#84BE84" rx="3" ry="3" style="stroke:#038048;stroke-width:1.0;"/><text fill="#000000" font-family="sans-serif" font-size="14" lengthAdjust="spacing" textLength="79" x="443" y="855.602">safeDown()</text></g><!--class Settings--><g id="elem_Settings"><rect codeLine="76" fill="#F1F1F1" height="113.1875" id="Settings" rx="2.5" ry="2.5" style="stroke:#181818;stroke-width:0.5;" width="155" x="691.5" y="160.04"/><ellipse cx="736.25" cy="176.04" fill="#ADD1B2" rx="11" ry="11" style="stroke:#181818;stroke-width:1.0;"/><path d="M739.2188,181.6806 Q738.6406,181.9775 738,182.1181 Q737.3594,182.2744 736.6563,182.2744 Q734.1563,182.2744 732.8281,180.6337 Q731.5156,178.9775 731.5156,175.8525 Q731.5156,172.7275 732.8281,171.0712 Q734.1563,169.415 736.6563,169.415 Q737.3594,169.415 738,169.5712 Q738.6563,169.7275 739.2188,170.0244 L739.2188,172.7431 Q738.5938,172.165 738,171.8994 Q737.4063,171.6181 736.7813,171.6181 Q735.4375,171.6181 734.75,172.6962 Q734.0625,173.7587 734.0625,175.8525 Q734.0625,177.9462 734.75,179.0244 Q735.4375,180.0869 736.7813,180.0869 Q737.4063,180.0869 738,179.8212 Q738.5938,179.54 739.2188,178.9619 L739.2188,181.6806 Z " fill="#000000"/><text fill="#000000" font-family="sans-serif" font-size="14" lengthAdjust="spacing" textLength="57" x="756.75" y="180.8867">Settings</text><line style="stroke:#181818;stroke-width:0.5;" x1="692.5" x2="845.5" y1="192.04" y2="192.04"/><ellipse cx="702.5" cy="205.6884" fill="none" rx="3" ry="3" style="stroke:#038048;stroke-width:1.0;"/><text fill="#000000" font-family="sans-serif" font-size="14" lengthAdjust="spacing" textLength="129" x="711.5" y="209.0351">charactersToShow</text><ellipse cx="702.5" cy="221.9853" fill="none" rx="3" ry="3" style="stroke:#038048;stroke-width:1.0;"/><text fill="#000000" font-family="sans-serif" font-size="14" lengthAdjust="spacing" textLength="100" x="711.5" y="225.332">timeThreshold</text><ellipse cx="702.5" cy="238.2822" fill="none" rx="3" ry="3" style="stroke:#038048;stroke-width:1.0;"/><text fill="#000000" font-family="sans-serif" font-size="14" lengthAdjust="spacing" textLength="57" x="711.5" y="241.6289">timeUnit</text><line style="stroke:#181818;stroke-width:0.5;" x1="692.5" x2="845.5" y1="248.9306" y2="248.9306"/><ellipse cx="702.5" cy="262.5791" fill="#84BE84" rx="3" ry="3" style="stroke:#038048;stroke-width:1.0;"/><text fill="#000000" font-family="sans-serif" font-size="14" lengthAdjust="spacing" textLength="44" x="711.5" y="265.9257">rules()</text></g><!--entity twig--><g id="elem_twig"><path d="M1652,478.95 L1652,510.2469 A2.5,2.5 0 0 0 1654.5,512.7469 L1697.5,512.7469 A2.5,2.5 0 0 0 1700,510.2469 L1700,486.45 L1690,476.45 L1654.5,476.45 A2.5,2.5 0 0 0 1652,478.95 " fill="#F1F1F1" style="stroke:#181818;stroke-width:0.5;"/><path d="M1690,476.45 L1690,483.95 A2.5,2.5 0 0 0 1692.5,486.45 L1700,486.45 " fill="#F1F1F1" style="stroke:#181818;stroke-width:0.5;"/><text fill="#000000" font-family="sans-serif" font-size="14" lengthAdjust="spacing" textLength="28" x="1662" y="499.4451">twig</text></g><!--entity twig--><g id="elem_twig"><path d="M1760,478.95 L1760,510.2469 A2.5,2.5 0 0 0 1762.5,512.7469 L1805.5,512.7469 A2.5,2.5 0 0 0 1808,510.2469 L1808,486.45 L1798,476.45 L1762.5,476.45 A2.5,2.5 0 0 0 1760,478.95 " fill="#F1F1F1" style="stroke:#181818;stroke-width:0.5;"/><path d="M1798,476.45 L1798,483.95 A2.5,2.5 0 0 0 1800.5,486.45 L1808,486.45 " fill="#F1F1F1" style="stroke:#181818;stroke-width:0.5;"/><text fill="#000000" font-family="sans-serif" font-size="14" lengthAdjust="spacing" textLength="28" x="1770" y="499.4451">twig</text></g><!--class Plugin--><g id="elem_Plugin"><rect codeLine="1" fill="#F1F1F1" height="227.2656" id="Plugin" rx="2.5" ry="2.5" style="stroke:#181818;stroke-width:0.5;" width="257" x="1496.5" y="103"/><ellipse cx="1599.75" cy="119" fill="#ADD1B2" rx="11" ry="11" style="stroke:#181818;stroke-width:1.0;"/><path d="M1602.7188,124.6406 Q1602.1406,124.9375 1601.5,125.0781 Q1600.8594,125.2344 1600.1563,125.2344 Q1597.6563,125.2344 1596.3281,123.5938 Q1595.0156,121.9375 1595.0156,118.8125 Q1595.0156,115.6875 1596.3281,114.0313 Q1597.6563,112.375 1600.1563,112.375 Q1600.8594,112.375 1601.5,112.5313 Q1602.1563,112.6875 1602.7188,112.9844 L1602.7188,115.7031 Q1602.0938,115.125 1601.5,114.8594 Q1600.9063,114.5781 1600.2813,114.5781 Q1598.9375,114.5781 1598.25,115.6563 Q1597.5625,116.7188 1597.5625,118.8125 Q1597.5625,120.9063 1598.25,121.9844 Q1598.9375,123.0469 1600.2813,123.0469 Q1600.9063,123.0469 1601.5,122.7813 Q1602.0938,122.5 1602.7188,121.9219 L1602.7188,124.6406 Z " fill="#000000"/><text fill="#000000" font-family="sans-serif" font-size="14" lengthAdjust="spacing" textLength="42" x="1620.25" y="123.8467">Plugin</text><line style="stroke:#181818;stroke-width:0.5;" x1="1497.5" x2="1752.5" y1="135" y2="135"/><ellipse cx="1507.5" cy="148.6484" fill="none" rx="3" ry="3" style="stroke:#038048;stroke-width:1.0;"/><text fill="#000000" font-family="sans-serif" font-size="14" lengthAdjust="spacing" textLength="107" x="1516.5" y="151.9951">schemaVersion</text><ellipse cx="1507.5" cy="164.9453" fill="none" rx="3" ry="3" style="stroke:#038048;stroke-width:1.0;"/><text fill="#000000" font-family="sans-serif" font-size="14" lengthAdjust="spacing" textLength="101" x="1516.5" y="168.292">hasCpSettings</text><ellipse cx="1507.5" cy="181.2422" fill="none" rx="3" ry="3" style="stroke:#038048;stroke-width:1.0;"/><text fill="#000000" font-family="sans-serif" font-size="14" lengthAdjust="spacing" textLength="96" x="1516.5" y="184.5889">hasCpSection</text><ellipse cx="1507.5" cy="197.5391" fill="none" rx="3" ry="3" style="stroke:#038048;stroke-width:1.0;"/><text fill="#000000" font-family="sans-serif" font-size="14" lengthAdjust="spacing" textLength="42" x="1516.5" y="200.8857">plugin</text><line style="stroke:#181818;stroke-width:0.5;" x1="1497.5" x2="1752.5" y1="208.1875" y2="208.1875"/><ellipse cx="1507.5" cy="221.8359" fill="#84BE84" rx="3" ry="3" style="stroke:#038048;stroke-width:1.0;"/><text fill="#000000" font-family="sans-serif" font-size="14" lengthAdjust="spacing" textLength="30" x="1516.5" y="225.1826">init()</text><polygon fill="#4177AF" points="1507.5,234.1328,1503.5,240.1328,1511.5,240.1328" style="stroke:#1963A0;stroke-width:1.0;"/><text fill="#000000" font-family="sans-serif" font-size="14" lengthAdjust="spacing" textLength="153" x="1516.5" y="241.4795">createSettingsModel()</text><polygon fill="#4177AF" points="1507.5,250.4297,1503.5,256.4297,1511.5,256.4297" style="stroke:#1963A0;stroke-width:1.0;"/><text fill="#000000" font-family="sans-serif" font-size="14" lengthAdjust="spacing" textLength="97" x="1516.5" y="257.7764">settingsHtml()</text><rect fill="#F24D5C" height="6" style="stroke:#C82930;stroke-width:1.0;" width="6" x="1504.5" y="267.7266"/><text fill="#000000" font-family="sans-serif" font-size="14" lengthAdjust="spacing" textLength="153" x="1516.5" y="274.0732">attachEventHandlers()</text><ellipse cx="1507.5" cy="287.0234" fill="#84BE84" rx="3" ry="3" style="stroke:#038048;stroke-width:1.0;"/><text fill="#000000" font-family="sans-serif" font-size="14" lengthAdjust="spacing" textLength="80" x="1516.5" y="290.3701">afterInstall()</text><ellipse cx="1507.5" cy="303.3203" fill="#84BE84" rx="3" ry="3" style="stroke:#038048;stroke-width:1.0;"/><text fill="#000000" font-family="sans-serif" font-size="14" lengthAdjust="spacing" textLength="113" x="1516.5" y="306.667">beforeUninstall()</text><polygon fill="#4177AF" points="1507.5,315.6172,1503.5,321.6172,1511.5,321.6172" style="stroke:#1963A0;stroke-width:1.0;"/><text fill="#000000" font-family="sans-serif" font-size="14" lengthAdjust="spacing" textLength="231" x="1516.5" y="322.9639">runMigrationInBackground(string)</text></g><!--entity CraftCMS--><g id="elem_CraftCMS"><ellipse cx="1625" cy="14" fill="#F1F1F1" rx="8" ry="8" style="stroke:#181818;stroke-width:0.5;"/><text fill="#000000" font-family="sans-serif" font-size="14" lengthAdjust="spacing" textLength="63" x="1593.5" y="43.9951">CraftCMS</text></g><!--entity EllinikaSettings--><g id="elem_EllinikaSettings"><ellipse cx="769" cy="494.6" fill="#F1F1F1" rx="8" ry="8" style="stroke:#181818;stroke-width:0.5;"/><text fill="#000000" font-family="sans-serif" font-size="14" lengthAdjust="spacing" textLength="103" x="717.5" y="524.5951">EllinikaSettings</text></g><!--entity Database--><g id="elem_Database"><ellipse cx="1061" cy="1082.28" fill="#F1F1F1" rx="8" ry="8" style="stroke:#181818;stroke-width:0.5;"/><text fill="#000000" font-family="sans-serif" font-size="14" lengthAdjust="spacing" textLength="66" x="1028" y="1112.2751">Database</text></g><!--entity twig--><g id="elem_twig"><ellipse cx="1856" cy="822.61" fill="#F1F1F1" rx="8" ry="8" style="stroke:#181818;stroke-width:0.5;"/><text fill="#000000" font-family="sans-serif" font-size="14" lengthAdjust="spacing" textLength="28" x="1842" y="852.6051">twig</text></g><!--link CraftCMS to Plugin--><g id="link_CraftCMS_Plugin"><path codeLine="95" d="M1625,22.62 C1625,36.76 1625,68.71 1625,102.62 " fill="none" id="CraftCMS-Plugin" style="stroke:#181818;stroke-width:1.0;"/></g><!--link Plugin to EntryHandler--><g id="link_Plugin_EntryHandler"><path codeLine="96" d="M1530.38,330.67 C1511.94,352.71 1496.6104,371.0084 1478.6704,392.4484 " fill="none" id="Plugin-to-EntryHandler" style="stroke:#181818;stroke-width:1.0;"/><polygon fill="#181818" points="1474.82,397.05,1483.6633,392.7146,1478.0287,393.2154,1477.5279,387.5807,1474.82,397.05" style="stroke:#181818;stroke-width:1.0;"/></g><!--link models to controllers--><g id="link_models_controllers"><path codeLine="97" d="M882,298.3168 C882,298.8045 882,299.2933 882,299.7833 C882,301.7431 882,303.721 882,305.7149 C882,313.6908 882,321.9237 882,330.2851 C882,334.4658 882,338.6786 882,342.9075 C882,345.022 882,347.1404 882,349.2609 C882,350.3211 882,351.3818 882,352.4428 C882,352.9733 882,353.5039 882,354.0344 C882,354.1008 882,354.1671 882,354.2334 " fill="none" id="models-controllers" style="stroke:#181818;stroke-width:1.0;"/></g><!--link EntryHandler to EllinikaController--><g id="link_EntryHandler_EllinikaController"><path codeLine="98" d="M1294.97,592.31 C1274.79,612.03 1253.7,632.65 1234,651.94 C1227.99,657.82 1226.144,659.6191 1219.954,665.6891 " fill="none" id="EntryHandler-to-EllinikaController" style="stroke:#181818;stroke-width:1.0;"/><polygon fill="#181818" points="1215.67,669.89,1224.8966,666.4446,1219.24,666.3892,1219.2953,660.7327,1215.67,669.89" style="stroke:#181818;stroke-width:1.0;"/></g><!--link EntryHandler to UpdateController--><g id="link_EntryHandler_UpdateController"><path codeLine="99" d="M1394,592.09 C1394,642.5 1394,697.16 1394,743.46 " fill="none" id="EntryHandler-to-UpdateController" style="stroke:#181818;stroke-width:1.0;"/><polygon fill="#181818" points="1394,749.46,1398,740.46,1394,744.46,1390,740.46,1394,749.46" style="stroke:#181818;stroke-width:1.0;"/></g><!--reverse link Settings to EllinikaSettings--><g id="link_Settings_EllinikaSettings"><path codeLine="101" d="M769,291.48 C769,360.78 769,455.53 769,485.88 " fill="none" id="Settings-backto-EllinikaSettings" style="stroke:#181818;stroke-width:1.0;"/><polygon fill="none" points="769,273.48,763,291.48,775,291.48,769,273.48" style="stroke:#181818;stroke-width:1.0;"/></g><!--link migrations to Database--><g id="link_migrations_Database"><path codeLine="102" d="M829.5635,887.1599 C829.6451,887.7968 829.7284,888.4365 829.8136,889.0788 C830.4949,894.2179 831.2916,899.5295 832.2225,904.9638 C839.67,948.4375 855.71,999.755 890,1033.28 C936.96,1079.19 1024.16,1081.93 1052.12,1081.56 " fill="none" id="migrations-Database" style="stroke:#181818;stroke-width:1.0;"/></g><!--link EllinikaController to Database--><g id="link_EllinikaController_Database"><path codeLine="103" d="M1061,993.68 C1061,1028.99 1061,1059.68 1061,1073.5 " fill="none" id="EllinikaController-Database" style="stroke:#181818;stroke-width:1.0;"/></g><!--link UpdateController to Database--><g id="link_UpdateController_Database"><path codeLine="104" d="M1354.98,895.85 C1326.77,941.56 1284.63,998.41 1233,1033.28 C1178.54,1070.07 1096.32,1078.84 1069.67,1080.77 " fill="none" id="UpdateController-Database" style="stroke:#181818;stroke-width:1.0;"/></g><!--link Plugin to templates--><g id="link_Plugin_templates"><path codeLine="105" d="M1754,274.48 C1780.59,291.53 1805.95,312.68 1824,338.26 C1834,352.435 1841.0163,369.0412 1845.9117,386.0236 C1846.2177,387.085 1846.5154,388.1479 1846.805,389.2117 C1846.8774,389.4776 1845.3943,383.9487 1845.4657,384.2147 " fill="none" id="Plugin-to-templates" style="stroke:#181818;stroke-width:1.0;"/><polygon fill="#181818" points="1847.0207,390.0097,1848.5515,380.2806,1845.7248,385.1806,1840.8248,382.3539,1847.0207,390.0097" style="stroke:#181818;stroke-width:1.0;"/></g><!--link templates to twig--><g id="link_templates_twig"><path codeLine="106" d="M1856,561.4669 C1856,568.993 1856,576.954 1856,585.2343 C1856,601.7947 1856,619.6319 1856,637.82 C1856,710.5725 1856,788.94 1856,813.67 " fill="none" id="templates-twig" style="stroke:#181818;stroke-width:1.0;"/></g><!--SRC=[hLR9Rjim4BthAmYVPAJk5mG1wYM8W0OeOASz6ZGraeXGb45IIOmq-VPo4qrPKhgWlbYQ6SwyUPn5X64fqJVMbfIZrmJftnMIf88QVmSXQSEzhC9oTTo2KfINiYyZwcnsj9xy2-LKfNFxyew80AoWyt3VvC22JdhfdQexuG9XfJ2fDa_0rHtcETDmlEuAuKA1oBXKcB4WF43H27ZWj2T_HwBbzxGKsC3C-1AJnr8qBSzJgOIEEa_UaeHGGHYWbT2UL_VR8DWmfhDun27pf6XO3WBDICELQ9Y1DVFC4KjcTsGL3Bow8qM2K1kjEwsnmgbz-eGEJSC-8OUe-vz7n_ILaCSlZAqgp4l8TwA5b78rPkeYt0gGbNNUXPXshky25DnIOFcKKsnlUHqP3XraVBqS4TlmorEMEo0zg3BZEtnWFfU9s62EPVdcXKebfm1QWcm0Jz67Bi_8ACYi-3DY7GSPp-4bdUB6CHvhIr1VjUiMbx0yRQccoKAxCD48F9hUuVQOOq-ugIVDH0nk6kJ3yDpGQ8kVGaDwjMw5g99DBhxteXfUk0k9tedbpaPpvZ9IQbVAmOa0xFUwVpJubgXXLHn5Gq1AHwLfZ15bLDxpA9XcqiAGpklkT8HOJUKFgYhATxI6NMLSw6vExOcB-p0MQreKwHZJFPPSRXzskpE9sttw_lwrUqUC_xeL7SxVDwGjwUvM9opVp5ZjXcNTpT-BMLcVJdMTv_kggcifzs26_LwP-EZQ5fLsXpYkuQR7giG5F1nx5Mr4w-QPZzNnHHJNK_yfJ9oasMaN2NRj5VoQGOM5xZ-zDtRDjcgUWqB5HTcJwfscWa2q3EHOV0NraUdC0eI2wWHd-swxVbRFj9oz-eDd0se6MgnqRlq6D5Lxm1A2m1WcIRSfqMBXFnyI_nMnMDpq9aVYU366qSvCUiF5dXdipQ7DPQybII3u-gSEC5ZNvy8pyKCk8piwLWzQEbP6QGR6a_1aJ0r3lm00]--></g></svg>
