<?xml version="1.0" encoding="UTF-8" standalone="no"?>
<!DOCTYPE svg PUBLIC "-//W3C//DTD SVG 1.1//EN" "http://www.w3.org/Graphics/SVG/1.1/DTD/svg11.dtd">
<!-- Created with Vectornator (http://vectornator.io/) -->
<svg height="100%" stroke-miterlimit="10" style="fill-rule:nonzero;clip-rule:evenodd;stroke-linecap:round;stroke-linejoin:round;" version="1.1" viewBox="0 0 283.5 283.5" width="100%" xml:space="preserve" xmlns="http://www.w3.org/2000/svg" xmlns:vectornator="http://vectornator.io" xmlns:xlink="http://www.w3.org/1999/xlink">
<defs>
<linearGradient gradientTransform="matrix(128.917 193.375 -193.375 128.917 64.9468 88.6485)" gradientUnits="userSpaceOnUse" id="LinearGradient" x1="0" x2="1" y1="0" y2="0">
<stop offset="0" stop-color="#a0c47c"/>
<stop offset="1" stop-color="#1b5b14"/>
</linearGradient>
</defs>
<g id="Ebene-1" vectornator:layerName="Ebene 1">
<path d="M1.3685e-14 141.75C1.3685e-14 63.4636 63.4636 0 141.75 0C220.036 0 283.5 63.4636 283.5 141.75C283.5 220.036 220.036 283.5 141.75 283.5C63.4636 283.5 1.3685e-14 220.036 1.3685e-14 141.75Z" fill="url(#LinearGradient)" fill-rule="nonzero" opacity="1" stroke="none"/>
<path d="M217.802 197.999C217.802 198.824 217.596 203.88 217.183 213.167C216.77 222.453 216.564 231.327 216.564 239.788L216.564 250.003C196.34 248.971 156.306 248.455 96.4605 248.455C89.2378 248.455 82.1182 248.558 75.1019 248.764C68.0856 248.764 63.3392 248.764 60.8629 248.764L57.7674 248.764C53.8465 248.764 51.8861 247.836 51.8861 245.978C51.8861 244.74 52.5052 244.018 53.7433 243.812C54.3624 243.812 58.2833 243.502 65.506 242.883C70.8715 242.47 74.1217 241.335 75.2567 239.478C76.3917 237.621 76.9592 232.771 76.9592 224.929L76.9592 50.9654C76.9592 44.9809 76.0821 41.4211 74.328 40.2861C72.574 39.1511 66.9506 38.5836 57.4579 38.5836C54.1561 38.5836 52.5052 37.655 52.5052 35.7977C52.5052 33.9405 54.7752 33.0118 59.3151 33.0118L112.247 33.3214C114.105 33.3214 125.764 33.2182 147.226 33.0118C168.688 33.0118 183.133 33.0118 190.562 33.0118C196.753 33.0118 202.428 32.5991 207.587 31.7737C208 40.6473 208.928 52.9259 210.373 68.6095L211.611 81.9199C211.817 82.9517 211.921 84.293 211.921 85.9439C211.921 88.0076 210.992 89.0394 209.135 89.0394C206.865 89.0394 205.214 86.4599 204.182 81.3008C200.261 62.7281 193.864 50.9654 184.99 46.0127C178.387 42.2982 161.052 40.4409 132.987 40.4409L107.604 40.4409L107.604 131.137L115.033 131.137C138.146 131.137 152.23 129.383 157.286 125.875C162.342 122.367 165.798 112.152 167.656 95.2303C168.068 90.8967 169.203 88.7298 171.061 88.7298C173.331 88.7298 174.466 90.5871 174.466 94.3016C174.466 98.0162 174.259 103.485 173.847 110.707C173.434 117.93 173.227 123.399 173.227 127.113C173.227 149.194 173.64 164.362 174.466 172.616C174.672 174.68 174.775 176.434 174.775 177.879C174.775 180.561 173.64 181.903 171.37 181.903C169.926 181.903 168.945 181.026 168.43 179.272C167.914 177.518 167.037 171.791 165.798 162.092C164.148 149.916 159.092 142.384 150.631 139.495C146.916 138.257 137.217 137.638 121.534 137.638L107.604 137.638L107.604 241.645C153.004 241.645 179.625 240.716 187.467 238.859C201.086 235.763 208.825 222.556 210.682 199.237C211.095 194.078 212.436 191.499 214.706 191.499C216.77 191.499 217.802 193.665 217.802 197.999Z" fill="#000000" opacity="1" stroke="none" vectornator:layerName="Text 1"/>
</g>
</svg>
